# Blender v2.90.0 OBJ File: 'kojinispe.blend'
# www.blender.org
mtllib box.mtl
o Cube
v 1.000000 1.000000 -1.000000
v 1.000000 -1.000000 -1.000000
v 1.000000 1.000000 1.000000
v 1.000000 -1.000000 1.000000
v -1.000000 1.000000 -1.000000
v -1.000000 -1.000000 -1.000000
v -1.000000 1.000000 1.000000
v -1.000000 -1.000000 1.000000
vt 1.002513 0.004739
vt 0.005392 1.001860
vt 0.005392 0.004739
vt 1.003536 0.001070
vt -0.003536 1.008143
vt -0.003536 0.001070
vt 0.999250 -0.003856
vt 0.000750 0.994643
vt 0.000750 -0.003856
vt 1.002181 -0.002834
vt 0.000496 0.998850
vt 0.000496 -0.002834
vt 1.001245 -0.008529
vt -0.006537 0.999253
vt -0.006537 -0.008529
vt 1.000000 0.001992
vt 0.000000 1.001992
vt 0.000000 0.001992
vt 1.002513 1.001860
vt 1.003536 1.008143
vt 0.999250 0.994643
vt 1.002181 0.998850
vt 1.001245 0.999253
vt 1.000000 1.001992
vn 0.0000 1.0000 0.0000
vn 0.0000 0.0000 1.0000
vn -1.0000 0.0000 0.0000
vn 0.0000 -1.0000 0.0000
vn 1.0000 0.0000 0.0000
vn 0.0000 0.0000 -1.0000
usemtl Material
s off
f 5/1/1 3/2/1 1/3/1
f 3/4/2 8/5/2 4/6/2
f 7/7/3 6/8/3 8/9/3
f 2/10/4 8/11/4 6/12/4
f 1/13/5 4/14/5 2/15/5
f 5/16/6 2/17/6 6/18/6
f 5/1/1 7/19/1 3/2/1
f 3/4/2 7/20/2 8/5/2
f 7/7/3 5/21/3 6/8/3
f 2/10/4 4/22/4 8/11/4
f 1/13/5 3/23/5 4/14/5
f 5/16/6 1/24/6 2/17/6
